<svg width="30" height="30" viewBox="0 0 30 30" fill="none" xmlns="http://www.w3.org/2000/svg">
<path d="M25.5563 8.92407C27.5843 8.92407 29.2283 7.28006 29.2283 5.25208C29.2283 3.22409 27.5843 1.58008 25.5563 1.58008C23.5283 1.58008 21.8843 3.22409 21.8843 5.25208C21.8843 7.28006 23.5283 8.92407 25.5563 8.92407Z" fill="#FFE4CC"/>
<path d="M25.5559 6.90807C26.4705 6.90807 27.2119 6.16665 27.2119 5.25207C27.2119 4.33749 26.4705 3.59607 25.5559 3.59607C24.6413 3.59607 23.8999 4.33749 23.8999 5.25207C23.8999 6.16665 24.6413 6.90807 25.5559 6.90807Z" fill="#504461"/>
<path d="M25.5559 5.25208H15.0439" stroke="#504461" stroke-miterlimit="10"/>
<path d="M4.172 29.3001C6.19999 29.3001 7.844 27.656 7.844 25.6281C7.844 23.6001 6.19999 21.9561 4.172 21.9561C2.14401 21.9561 0.5 23.6001 0.5 25.6281C0.5 27.656 2.14401 29.3001 4.172 29.3001Z" fill="#FFE4CC"/>
<path d="M4.17162 27.284C5.08621 27.284 5.82762 26.5426 5.82762 25.628C5.82762 24.7135 5.08621 23.972 4.17162 23.972C3.25704 23.972 2.51562 24.7135 2.51562 25.628C2.51562 26.5426 3.25704 27.284 4.17162 27.284Z" fill="#504461"/>
<path d="M4.17188 25.6281L13.4004 25.6282" stroke="#504461" stroke-miterlimit="10"/>
<path d="M7.988 15.476C3.884 15.476 0.5 12.092 0.5 7.988C0.5 3.884 3.884 0.5 7.988 0.5C12.092 0.5 15.476 3.884 15.476 7.988C15.476 12.092 12.092 15.476 7.988 15.476Z" stroke="#504461" stroke-linecap="round" stroke-linejoin="round"/>
<path d="M7.98793 13.2439C10.8907 13.2439 13.2439 10.8907 13.2439 7.98793C13.2439 5.08512 10.8907 2.73193 7.98793 2.73193C5.08512 2.73193 2.73193 5.08512 2.73193 7.98793C2.73193 10.8907 5.08512 13.2439 7.98793 13.2439Z" fill="#CCFFFF"/>
<path d="M5.1084 8.27592L6.8364 9.93192L10.7964 5.97192" stroke="#504461" stroke-miterlimit="10"/>
<path d="M20.8041 29.3C16.1241 29.3 12.3081 25.484 12.3081 20.804C12.3081 16.124 16.1241 12.308 20.8041 12.308C25.4841 12.308 29.3001 16.124 29.3001 20.804C29.3001 25.484 25.4841 29.3 20.8041 29.3Z" stroke="#504461" stroke-linecap="round" stroke-linejoin="round"/>
<path d="M20.8043 26.852C24.1446 26.852 26.8523 24.1442 26.8523 20.804C26.8523 17.4638 24.1446 14.756 20.8043 14.756C17.4641 14.756 14.7563 17.4638 14.7563 20.804C14.7563 24.1442 17.4641 26.852 20.8043 26.852Z" fill="#FFCDD8"/>
<path d="M18.1401 20.804H23.3961" stroke="#504461" stroke-linecap="round" stroke-linejoin="round"/>
</svg>
