<svg width="29" height="29" viewBox="0 0 29 29" fill="none" xmlns="http://www.w3.org/2000/svg">
<path d="M2.65359 5.30524C4.11859 5.30524 5.30621 4.11762 5.30621 2.65262C5.30621 1.18762 4.11859 0 2.65359 0C1.18859 0 0.000976562 1.18762 0.000976562 2.65262C0.000976562 4.11762 1.18859 5.30524 2.65359 5.30524Z" fill="#FFCDD8"/>
<path d="M2.65312 3.5621C3.15541 3.5621 3.56259 3.15492 3.56259 2.65263C3.56259 2.15035 3.15541 1.74316 2.65312 1.74316C2.15084 1.74316 1.74365 2.15035 1.74365 2.65263C1.74365 3.15492 2.15084 3.5621 2.65312 3.5621Z" fill="#504461"/>
<path d="M3.33521 28.7998C5.17692 28.7998 6.66993 27.3068 6.66993 25.4651C6.66993 23.6234 5.17692 22.1304 3.33521 22.1304C1.49349 22.1304 0.000488281 23.6234 0.000488281 25.4651C0.000488281 27.3068 1.49349 28.7998 3.33521 28.7998Z" fill="#CCFFFF"/>
<path d="M25.4661 6.66944C27.3078 6.66944 28.8008 5.17643 28.8008 3.33472C28.8008 1.493 27.3078 0 25.4661 0C23.6244 0 22.1313 1.493 22.1313 3.33472C22.1313 5.17643 23.6244 6.66944 25.4661 6.66944Z" fill="#CCFFFF"/>
<path d="M14.4004 18.9474C16.9118 18.9474 18.9477 16.9114 18.9477 14.4C18.9477 11.8886 16.9118 9.85266 14.4004 9.85266C11.8889 9.85266 9.85303 11.8886 9.85303 14.4C9.85303 16.9114 11.8889 18.9474 14.4004 18.9474Z" fill="#CCFFFF"/>
<path d="M26.1477 28.8C27.6127 28.8 28.8004 27.6124 28.8004 26.1474C28.8004 24.6824 27.6127 23.4948 26.1477 23.4948C24.6827 23.4948 23.4951 24.6824 23.4951 26.1474C23.4951 27.6124 24.6827 28.8 26.1477 28.8Z" fill="#FFF5CC"/>
<path d="M26.1478 27.0569C26.65 27.0569 27.0572 26.6497 27.0572 26.1474C27.0572 25.6451 26.65 25.2379 26.1478 25.2379C25.6455 25.2379 25.2383 25.6451 25.2383 26.1474C25.2383 26.6497 25.6455 27.0569 26.1478 27.0569Z" fill="#504461"/>
<path d="M7.80707 18.8714C6.97339 17.583 6.44287 16.0672 6.44287 14.3999C6.44287 10.0041 10.005 6.44202 14.4007 6.44202C18.7965 6.44202 17.5839 6.97254 18.8723 7.80622" stroke="#504461" stroke-width="0.9" stroke-linecap="round" stroke-linejoin="round"/>
<path d="M20.9939 9.92834C21.8276 11.2168 22.3581 12.7325 22.3581 14.3999C22.3581 17.4315 20.6908 20.1599 17.9624 21.5241C16.9771 22.0546 15.916 22.282 14.7792 22.3578C14.7034 22.3578 14.5518 22.3578 14.4003 22.3578C14.2487 22.3578 14.0971 22.3578 14.0213 22.3578C12.5055 22.3578 11.1413 21.8272 9.92871 20.9936" stroke="#504461" stroke-width="0.9" stroke-linecap="round" stroke-linejoin="round"/>
<path d="M20.3885 14.3999C20.3885 16.7494 19.0243 18.7957 17.0537 19.781C16.2959 20.1599 15.538 20.3873 14.6285 20.3873C14.5527 20.3873 14.4769 20.3873 14.3253 20.3873C14.1738 20.3873 14.1738 20.3873 14.0222 20.3873C10.839 20.2357 8.26221 17.5831 8.26221 14.3999C8.26221 11.2168 10.9906 8.4126 14.2495 8.4126C17.5085 8.4126 20.2369 11.141 20.2369 14.3999H20.3885Z" stroke="#504461" stroke-width="0.9" stroke-miterlimit="10"/>
<path d="M11.9746 14.6273L13.4146 16.0673L16.8251 12.7325" stroke="#504461" stroke-width="0.9" stroke-miterlimit="10"/>
<path d="M25.465 4.85053C26.3021 4.85053 26.9808 4.17189 26.9808 3.33475C26.9808 2.49761 26.3021 1.81897 25.465 1.81897C24.6279 1.81897 23.9492 2.49761 23.9492 3.33475C23.9492 4.17189 24.6279 4.85053 25.465 4.85053Z" fill="#504461"/>
<path d="M3.33564 27.3599C4.38207 27.3599 5.23037 26.5116 5.23037 25.4652C5.23037 24.4187 4.38207 23.5704 3.33564 23.5704C2.28922 23.5704 1.44092 24.4187 1.44092 25.4652C1.44092 26.5116 2.28922 27.3599 3.33564 27.3599Z" fill="#504461"/>
<path d="M10.157 18.644L3.33594 25.4651" stroke="#504461" stroke-width="0.9" stroke-miterlimit="10"/>
<path d="M25.4655 3.33472L18.6445 10.1557" stroke="#504461" stroke-width="0.9" stroke-miterlimit="10"/>
</svg>
