<svg width="29" height="29" viewBox="0 0 29 29" fill="none" xmlns="http://www.w3.org/2000/svg">
<path d="M5.90019 6.18154C7.1028 6.18154 8.07772 5.20661 8.07772 4.00398C8.07772 2.80134 7.1028 1.82642 5.90019 1.82642C4.69757 1.82642 3.72266 2.80134 3.72266 4.00398C3.72266 5.20661 4.69757 6.18154 5.90019 6.18154Z" fill="#CCFFFF"/>
<path d="M5.90018 4.70639C6.28812 4.70639 6.60261 4.3919 6.60261 4.00395C6.60261 3.61601 6.28812 3.30151 5.90018 3.30151C5.51224 3.30151 5.19775 3.61601 5.19775 4.00395C5.19775 4.3919 5.51224 4.70639 5.90018 4.70639Z" fill="#504461"/>
<path d="M0.70243 6.4625C1.09037 6.4625 1.40486 6.148 1.40486 5.76006C1.40486 5.37211 1.09037 5.05762 0.70243 5.05762C0.314488 5.05762 0 5.37211 0 5.76006C0 6.148 0.314488 6.4625 0.70243 6.4625Z" fill="#504461"/>
<path d="M28.097 1.40488C28.4849 1.40488 28.7994 1.09039 28.7994 0.702439C28.7994 0.314493 28.4849 0 28.097 0C27.709 0 27.3945 0.314493 27.3945 0.702439C27.3945 1.09039 27.709 1.40488 28.097 1.40488Z" fill="#504461"/>
<path d="M19.3167 8.8507C19.9762 8.8507 20.5108 8.31606 20.5108 7.65655C20.5108 6.99704 19.9762 6.4624 19.3167 6.4624C18.6572 6.4624 18.1226 6.99704 18.1226 7.65655C18.1226 8.31606 18.6572 8.8507 19.3167 8.8507Z" fill="#504461"/>
<path d="M25.428 8.8507C26.0875 8.8507 26.6221 8.31606 26.6221 7.65655C26.6221 6.99704 26.0875 6.4624 25.428 6.4624C24.7685 6.4624 24.2339 6.99704 24.2339 7.65655C24.2339 8.31606 24.7685 8.8507 25.428 8.8507Z" fill="#504461"/>
<path d="M8.71024 10.1151C9.36974 10.1151 9.90437 9.58046 9.90437 8.92095C9.90437 8.26144 9.36974 7.72681 8.71024 7.72681C8.05074 7.72681 7.51611 8.26144 7.51611 8.92095C7.51611 9.58046 8.05074 10.1151 8.71024 10.1151Z" fill="#504461"/>
<path d="M4.14433 7.1649C4.80383 7.1649 5.33846 6.63027 5.33846 5.97076C5.33846 5.31125 4.80383 4.77661 4.14433 4.77661C3.48483 4.77661 2.9502 5.31125 2.9502 5.97076C2.9502 6.63027 3.48483 7.1649 4.14433 7.1649Z" fill="#504461"/>
<path d="M21.2139 12.082C22.5717 12.082 23.6724 10.9813 23.6724 9.62345C23.6724 8.26564 22.5717 7.16492 21.2139 7.16492C19.8561 7.16492 18.7554 8.26564 18.7554 9.62345C18.7554 10.9813 19.8561 12.082 21.2139 12.082Z" fill="#FFCDD8"/>
<path d="M21.2135 10.4664C21.6791 10.4664 22.0564 10.089 22.0564 9.62345C22.0564 9.15791 21.6791 8.78052 21.2135 8.78052C20.748 8.78052 20.3706 9.15791 20.3706 9.62345C20.3706 10.089 20.748 10.4664 21.2135 10.4664Z" fill="#504461"/>
<path d="M3.021 14.5405C4.3788 14.5405 5.47951 13.4398 5.47951 12.082C5.47951 10.7241 4.3788 9.62341 3.021 9.62341C1.66321 9.62341 0.5625 10.7241 0.5625 12.082C0.5625 13.4398 1.66321 14.5405 3.021 14.5405Z" fill="#FFF5CC"/>
<path d="M3.02065 12.9249C3.48618 12.9249 3.86357 12.5475 3.86357 12.0819C3.86357 11.6164 3.48618 11.239 3.02065 11.239C2.55512 11.239 2.17773 11.6164 2.17773 12.0819C2.17773 12.5475 2.55512 12.9249 3.02065 12.9249Z" fill="#504461"/>
<path d="M10.3255 14.1893C10.985 14.1893 11.5196 13.6547 11.5196 12.9952C11.5196 12.3357 10.985 11.801 10.3255 11.801C9.66598 11.801 9.13135 12.3357 9.13135 12.9952C9.13135 13.6547 9.66598 14.1893 10.3255 14.1893Z" fill="#504461"/>
<path d="M16.9988 15.2429C17.6583 15.2429 18.1929 14.7083 18.1929 14.0488C18.1929 13.3893 17.6583 12.8546 16.9988 12.8546C16.3393 12.8546 15.8047 13.3893 15.8047 14.0488C15.8047 14.7083 16.3393 15.2429 16.9988 15.2429Z" fill="#504461"/>
<path d="M14.8919 16.7883C15.2798 16.7883 15.5943 16.4738 15.5943 16.0859C15.5943 15.6979 15.2798 15.3834 14.8919 15.3834C14.5039 15.3834 14.1895 15.6979 14.1895 16.0859C14.1895 16.4738 14.5039 16.7883 14.8919 16.7883Z" fill="#504461"/>
<path d="M11.0984 7.16489C11.4864 7.16489 11.8009 6.8504 11.8009 6.46245C11.8009 6.0745 11.4864 5.76001 11.0984 5.76001C10.7105 5.76001 10.396 6.0745 10.396 6.46245C10.396 6.8504 10.7105 7.16489 11.0984 7.16489Z" fill="#504461"/>
<path d="M21.2137 4.00388C21.6016 4.00388 21.9161 3.68938 21.9161 3.30144C21.9161 2.91349 21.6016 2.599 21.2137 2.599C20.8257 2.599 20.5112 2.91349 20.5112 3.30144C20.5112 3.68938 20.8257 4.00388 21.2137 4.00388Z" fill="#504461"/>
<path d="M14.5405 20.0898L6.11133 15.2429" stroke="#504461" stroke-width="0.9" stroke-linecap="round" stroke-linejoin="round"/>
<path d="M6.11133 20.2302V23.6722L14.5405 28.519" stroke="#504461" stroke-width="0.9" stroke-linecap="round" stroke-linejoin="round"/>
<path d="M22.9697 20.2302V23.6722L14.5405 28.519V20.0898L22.9697 15.2429" stroke="#504461" stroke-width="0.9" stroke-linecap="round" stroke-linejoin="round"/>
<path d="M14.5405 20.0898L16.9288 23.7424L25.3579 18.8254L22.9697 15.2429" stroke="#504461" stroke-width="0.9" stroke-linecap="round" stroke-linejoin="round"/>
<path d="M14.5406 20.0898L12.2226 23.7424L3.79346 18.8254L6.11147 15.2429" stroke="#504461" stroke-width="0.9" stroke-linecap="round" stroke-linejoin="round"/>
<path d="M14.5405 10.3961L22.9697 15.2429" stroke="#504461" stroke-width="0.9" stroke-linecap="round" stroke-linejoin="round"/>
<path d="M8.00789 14.119L6.11133 15.2429" stroke="#504461" stroke-width="0.9" stroke-linecap="round" stroke-linejoin="round"/>
<path d="M14.5405 10.3961L12.5034 11.52" stroke="#504461" stroke-width="0.9" stroke-linecap="round" stroke-linejoin="round"/>
</svg>
