<svg width="29" height="29" viewBox="0 0 29 29" fill="none" xmlns="http://www.w3.org/2000/svg">
<path d="M14.4005 0C6.4462 0 0.000488281 6.44571 0.000488281 14.4C0.000488281 22.3543 6.4462 28.8 14.4005 28.8C22.3548 28.8 28.8005 22.3543 28.8005 14.4C28.8005 6.44571 22.3548 0 14.4005 0ZM14.4005 24.8914C8.57192 24.8914 3.90906 20.16 3.90906 14.4C3.90906 8.64 8.64049 3.90857 14.4005 3.90857C20.1605 3.90857 24.8919 8.64 24.8919 14.4C24.8919 20.16 20.1605 24.8914 14.4005 24.8914Z" fill="#CCFFFF"/>
<path d="M14.4008 5.28003C9.39505 5.28003 5.28076 9.39432 5.28076 14.4C5.28076 19.4057 9.39505 23.52 14.4008 23.52C19.4065 23.52 23.5208 19.4057 23.5208 14.4C23.5208 9.39432 19.4065 5.28003 14.4008 5.28003ZM14.4008 20.0915C11.2465 20.0915 8.70933 17.5543 8.70933 14.4C8.70933 11.2457 11.2465 8.7086 14.4008 8.7086C17.555 8.7086 20.0922 11.2457 20.0922 14.4C20.0922 17.5543 17.555 20.0915 14.4008 20.0915Z" fill="#FFF5CC"/>
<path d="M14.4006 18.7201C16.7864 18.7201 18.7206 16.7859 18.7206 14.4001C18.7206 12.0142 16.7864 10.0801 14.4006 10.0801C12.0147 10.0801 10.0806 12.0142 10.0806 14.4001C10.0806 16.7859 12.0147 18.7201 14.4006 18.7201Z" fill="#FFCDD8"/>
<path d="M14.3999 16.9372C15.8012 16.9372 16.9371 15.8013 16.9371 14.4001C16.9371 12.9988 15.8012 11.8629 14.3999 11.8629C12.9987 11.8629 11.8628 12.9988 11.8628 14.4001C11.8628 15.8013 12.9987 16.9372 14.3999 16.9372Z" fill="#504461"/>
<path d="M14.4002 21.6C18.3766 21.6 21.6002 18.3764 21.6002 14.4C21.6002 10.4235 18.3766 7.19995 14.4002 7.19995C10.4237 7.19995 7.2002 10.4235 7.2002 14.4C7.2002 18.3764 10.4237 21.6 14.4002 21.6Z" stroke="#504461" stroke-width="0.9" stroke-miterlimit="10"/>
</svg>
