<svg width="29" height="29" viewBox="0 0 29 29" fill="none" xmlns="http://www.w3.org/2000/svg">
<path d="M4.19969 5.22005C4.76302 5.22005 5.21969 4.76338 5.21969 4.20005C5.21969 3.63672 4.76302 3.18005 4.19969 3.18005C3.63636 3.18005 3.17969 3.63672 3.17969 4.20005C3.17969 4.76338 3.63636 5.22005 4.19969 5.22005Z" fill="#504461"/>
<path d="M10.9795 5.22005C11.5428 5.22005 11.9995 4.76338 11.9995 4.20005C11.9995 3.63672 11.5428 3.18005 10.9795 3.18005C10.4161 3.18005 9.95947 3.63672 9.95947 4.20005C9.95947 4.76338 10.4161 5.22005 10.9795 5.22005Z" fill="#504461"/>
<path d="M17.8203 5.22005C18.3836 5.22005 18.8403 4.76338 18.8403 4.20005C18.8403 3.63672 18.3836 3.18005 17.8203 3.18005C17.257 3.18005 16.8003 3.63672 16.8003 4.20005C16.8003 4.76338 17.257 5.22005 17.8203 5.22005Z" fill="#504461"/>
<path d="M24.6001 5.22005C25.1634 5.22005 25.6201 4.76338 25.6201 4.20005C25.6201 3.63672 25.1634 3.18005 24.6001 3.18005C24.0367 3.18005 23.5801 3.63672 23.5801 4.20005C23.5801 4.76338 24.0367 5.22005 24.6001 5.22005Z" fill="#504461"/>
<path d="M4.19969 12C4.76302 12 5.21969 11.5433 5.21969 10.98C5.21969 10.4166 4.76302 9.95996 4.19969 9.95996C3.63636 9.95996 3.17969 10.4166 3.17969 10.98C3.17969 11.5433 3.63636 12 4.19969 12Z" fill="#504461"/>
<path d="M10.9799 14.1C12.703 14.1 14.0999 12.7031 14.0999 10.98C14.0999 9.25686 12.703 7.85999 10.9799 7.85999C9.25673 7.85999 7.85986 9.25686 7.85986 10.98C7.85986 12.7031 9.25673 14.1 10.9799 14.1Z" fill="#FFE4CC"/>
<path d="M10.9795 12C11.5428 12 11.9995 11.5433 11.9995 10.98C11.9995 10.4166 11.5428 9.95996 10.9795 9.95996C10.4161 9.95996 9.95947 10.4166 9.95947 10.98C9.95947 11.5433 10.4161 12 10.9795 12Z" fill="#504461"/>
<path d="M17.8197 14.1C19.5428 14.1 20.9397 12.7031 20.9397 10.98C20.9397 9.25686 19.5428 7.85999 17.8197 7.85999C16.0966 7.85999 14.6997 9.25686 14.6997 10.98C14.6997 12.7031 16.0966 14.1 17.8197 14.1Z" fill="#FFCDD8"/>
<path d="M17.8193 12C18.3826 12 18.8393 11.5433 18.8393 10.98C18.8393 10.4166 18.3826 9.95996 17.8193 9.95996C17.256 9.95996 16.7993 10.4166 16.7993 10.98C16.7993 11.5433 17.256 12 17.8193 12Z" fill="#504461"/>
<path d="M24.6001 12C25.1634 12 25.6201 11.5433 25.6201 10.98C25.6201 10.4166 25.1634 9.95996 24.6001 9.95996C24.0367 9.95996 23.5801 10.4166 23.5801 10.98C23.5801 11.5433 24.0367 12 24.6001 12Z" fill="#504461"/>
<path d="M4.19969 18.8399C4.76302 18.8399 5.21969 18.3833 5.21969 17.8199C5.21969 17.2566 4.76302 16.7999 4.19969 16.7999C3.63636 16.7999 3.17969 17.2566 3.17969 17.8199C3.17969 18.3833 3.63636 18.8399 4.19969 18.8399Z" fill="#504461"/>
<path d="M10.9799 20.94C12.703 20.94 14.0999 19.5431 14.0999 17.82C14.0999 16.0968 12.703 14.7 10.9799 14.7C9.25673 14.7 7.85986 16.0968 7.85986 17.82C7.85986 19.5431 9.25673 20.94 10.9799 20.94Z" fill="#CCFFFF"/>
<path d="M10.9795 18.8399C11.5428 18.8399 11.9995 18.3833 11.9995 17.8199C11.9995 17.2566 11.5428 16.7999 10.9795 16.7999C10.4161 16.7999 9.95947 17.2566 9.95947 17.8199C9.95947 18.3833 10.4161 18.8399 10.9795 18.8399Z" fill="#504461"/>
<path d="M17.8197 20.94C19.5428 20.94 20.9397 19.5431 20.9397 17.82C20.9397 16.0968 19.5428 14.7 17.8197 14.7C16.0966 14.7 14.6997 16.0968 14.6997 17.82C14.6997 19.5431 16.0966 20.94 17.8197 20.94Z" fill="#FFF5CC"/>
<path d="M17.8193 18.8399C18.3826 18.8399 18.8393 18.3833 18.8393 17.8199C18.8393 17.2566 18.3826 16.7999 17.8193 16.7999C17.256 16.7999 16.7993 17.2566 16.7993 17.8199C16.7993 18.3833 17.256 18.8399 17.8193 18.8399Z" fill="#504461"/>
<path d="M24.6001 18.8399C25.1634 18.8399 25.6201 18.3833 25.6201 17.8199C25.6201 17.2566 25.1634 16.7999 24.6001 16.7999C24.0367 16.7999 23.5801 17.2566 23.5801 17.8199C23.5801 18.3833 24.0367 18.8399 24.6001 18.8399Z" fill="#504461"/>
<path d="M4.19969 25.62C4.76302 25.62 5.21969 25.1633 5.21969 24.6C5.21969 24.0366 4.76302 23.58 4.19969 23.58C3.63636 23.58 3.17969 24.0366 3.17969 24.6C3.17969 25.1633 3.63636 25.62 4.19969 25.62Z" fill="#504461"/>
<path d="M10.9795 25.62C11.5428 25.62 11.9995 25.1633 11.9995 24.6C11.9995 24.0366 11.5428 23.58 10.9795 23.58C10.4161 23.58 9.95947 24.0366 9.95947 24.6C9.95947 25.1633 10.4161 25.62 10.9795 25.62Z" fill="#504461"/>
<path d="M17.8203 25.62C18.3836 25.62 18.8403 25.1633 18.8403 24.6C18.8403 24.0366 18.3836 23.58 17.8203 23.58C17.257 23.58 16.8003 24.0366 16.8003 24.6C16.8003 25.1633 17.257 25.62 17.8203 25.62Z" fill="#504461"/>
<path d="M24.6001 25.62C25.1634 25.62 25.6201 25.1633 25.6201 24.6C25.6201 24.0366 25.1634 23.58 24.6001 23.58C24.0367 23.58 23.5801 24.0366 23.5801 24.6C23.5801 25.1633 24.0367 25.62 24.6001 25.62Z" fill="#504461"/>
</svg>
