<svg width="29" height="29" viewBox="0 0 29 29" fill="none" xmlns="http://www.w3.org/2000/svg">
<path d="M23.0161 0.699319L19.8303 6.29387C19.2864 7.22629 19.9857 8.31412 20.9958 8.31412H27.4452C28.4553 8.31412 29.1547 7.22629 28.6107 6.29387L25.4249 0.699319C24.881 -0.233106 23.6377 -0.233106 23.0938 0.699319H23.0161Z" fill="#CCFFFF"/>
<path d="M17.3442 21.2904L14.1584 26.8849C13.6145 27.8174 14.3138 28.9052 15.324 28.9052H21.7733C22.7834 28.9052 23.4828 27.8174 22.9389 26.8849L19.753 21.2904C19.2091 20.358 17.9659 20.358 17.422 21.2904H17.3442Z" fill="#FFF5CC"/>
<path d="M4.60086 8.46953L0.249502 16.0066C-0.449824 17.2499 0.404908 18.7262 1.80356 18.7262H10.5063C11.9049 18.7262 12.7597 17.2499 12.0603 16.0066L7.70898 8.46953C7.00965 7.2263 5.30019 7.2263 4.60086 8.46953Z" fill="#FFCDD8"/>
<path d="M6.15504 15.152C7.27081 15.152 8.17532 14.2475 8.17532 13.1317C8.17532 12.0159 7.27081 11.1115 6.15504 11.1115C5.03927 11.1115 4.13477 12.0159 4.13477 13.1317C4.13477 14.2475 5.03927 15.152 6.15504 15.152Z" fill="#504461"/>
<path d="M24.1821 5.36146C24.8259 5.36146 25.3477 4.83963 25.3477 4.19593C25.3477 3.55222 24.8259 3.0304 24.1821 3.0304C23.5384 3.0304 23.0166 3.55222 23.0166 4.19593C23.0166 4.83963 23.5384 5.36146 24.1821 5.36146Z" fill="#504461"/>
<path d="M18.5098 25.8748C19.1535 25.8748 19.6753 25.3529 19.6753 24.7092C19.6753 24.0655 19.1535 23.5437 18.5098 23.5437C17.8661 23.5437 17.3442 24.0655 17.3442 24.7092C17.3442 25.3529 17.8661 25.8748 18.5098 25.8748Z" fill="#504461"/>
<path d="M18.7431 24.7092L6.15527 13.1316" stroke="#504461" stroke-width="0.9" stroke-miterlimit="10"/>
<path d="M24.1821 4.19592L6.46582 13.1317" stroke="#504461" stroke-width="0.9" stroke-miterlimit="10"/>
</svg>
