<svg width="29" height="32" viewBox="0 0 29 32" fill="none" xmlns="http://www.w3.org/2000/svg">
<path fill-rule="evenodd" clip-rule="evenodd" d="M8.24253 21.6021C8.24448 21.6021 8.24643 21.6021 8.24838 21.6021H13.3296C14.8528 21.6078 16.08 22.8385 16.08 24.3631V30.8055C16.08 31.257 16.4447 31.639 16.9135 31.639H24.9709C25.0056 31.639 25.0404 31.5697 25.0404 31.5697V23.5122C25.0404 23.0607 24.6757 22.6787 24.2068 22.6787H17.3477C15.8195 22.6787 14.5866 21.4458 14.5866 19.9177V15.1076C14.5866 14.7429 14.2914 14.4303 13.9094 14.4303H9.1559C6.86961 14.4234 5.0185 12.568 5.0185 10.2801V8.07475C5.0185 7.62326 4.65382 7.24121 4.18496 7.24121H0.0694601C0.0347302 7.24121 0 7.31068 0 7.31068V11.4262C0 11.8777 0.364666 12.2597 0.833521 12.2597H3.26461C5.5552 12.2597 7.41225 14.1152 7.41487 16.4051V20.9248C7.41487 21.2895 7.71008 21.6021 8.0921 21.6021H8.24253Z" fill="#00FFFF"/>
<path fill-rule="evenodd" clip-rule="evenodd" d="M19.4659 13.5274C19.4659 13.9789 19.8305 14.3609 20.2994 14.3609H25.0155C26.1179 14.4415 27.1509 14.8043 27.9291 15.4746C28.0216 15.5701 28.1179 15.662 28.2179 15.7501C28.1261 15.6531 28.0298 15.5613 27.9291 15.4746C27.2781 14.8022 26.8195 13.9516 26.6376 12.996V8.02263C26.6376 7.57114 26.273 7.18912 25.8041 7.18912H21.2371C18.9449 7.18912 17.0869 5.33105 17.0869 3.03887V0.833521C17.0869 0.382031 16.7222 0 16.2533 0H12.1378C12.1031 0 12.0684 0.0694601 12.0684 0.0694601V4.18496C12.0684 4.63645 12.433 5.0185 12.9019 5.0185H15.3156C17.6078 5.0185 19.4659 6.87654 19.4659 9.16873V13.5274Z" fill="#00FFFF"/>
</svg>
