<svg width="29" height="29" viewBox="0 0 29 29" fill="none" xmlns="http://www.w3.org/2000/svg">
<path d="M12.9363 6.2374L6.4678 17.4802C5.54374 19.0973 6.69882 21.1764 8.54695 21.1764H20.2518C22.0999 21.1764 23.332 19.1743 22.3309 17.4802L15.8625 6.2374C15.2464 5.08232 13.6293 5.08232 12.9363 6.2374Z" stroke="#504461" stroke-miterlimit="10"/>
<path d="M8.54684 19.0203C8.54684 19.0203 8.39283 19.0203 8.23881 18.8663C8.16181 18.7122 8.23881 18.5582 8.23881 18.5582L14.0912 8.47054C14.0912 8.47054 14.1682 8.31653 14.3992 8.31653C14.6303 8.31653 14.6303 8.47054 14.7073 8.47054L20.5597 18.5582C20.5597 18.5582 20.6367 18.7122 20.5597 18.8663C20.4827 19.0203 20.3287 19.0203 20.2516 19.0203H8.54684Z" fill="#FFCDD8"/>
<path d="M14.4002 16.0942C15.3358 16.0942 16.0943 15.3357 16.0943 14.4001C16.0943 13.4644 15.3358 12.7059 14.4002 12.7059C13.4645 12.7059 12.7061 13.4644 12.7061 14.4001C12.7061 15.3357 13.4645 16.0942 14.4002 16.0942Z" fill="#504461"/>
<path d="M1.30909 2.61818C2.03208 2.61818 2.61818 2.03208 2.61818 1.30909C2.61818 0.5861 2.03208 0 1.30909 0C0.5861 0 0 0.5861 0 1.30909C0 2.03208 0.5861 2.61818 1.30909 2.61818Z" fill="#504461"/>
<path d="M10.0108 2.61818C10.7337 2.61818 11.3198 2.03208 11.3198 1.30909C11.3198 0.5861 10.7337 0 10.0108 0C9.28776 0 8.70166 0.5861 8.70166 1.30909C8.70166 2.03208 9.28776 2.61818 10.0108 2.61818Z" fill="#504461"/>
<path d="M18.7896 2.61818C19.5126 2.61818 20.0987 2.03208 20.0987 1.30909C20.0987 0.5861 19.5126 0 18.7896 0C18.0666 0 17.4805 0.5861 17.4805 1.30909C17.4805 2.03208 18.0666 2.61818 18.7896 2.61818Z" fill="#504461"/>
<path d="M27.4907 2.61818C28.2137 2.61818 28.7998 2.03208 28.7998 1.30909C28.7998 0.5861 28.2137 0 27.4907 0C26.7677 0 26.1816 0.5861 26.1816 1.30909C26.1816 2.03208 26.7677 2.61818 27.4907 2.61818Z" fill="#504461"/>
<path d="M1.30909 11.3197C2.03208 11.3197 2.61818 10.7336 2.61818 10.0106C2.61818 9.28764 2.03208 8.70154 1.30909 8.70154C0.5861 8.70154 0 9.28764 0 10.0106C0 10.7336 0.5861 11.3197 1.30909 11.3197Z" fill="#504461"/>
<path d="M27.4907 11.3197C28.2137 11.3197 28.7998 10.7336 28.7998 10.0106C28.7998 9.28764 28.2137 8.70154 27.4907 8.70154C26.7677 8.70154 26.1816 9.28764 26.1816 10.0106C26.1816 10.7336 26.7677 11.3197 27.4907 11.3197Z" fill="#504461"/>
<path d="M1.30909 20.0984C2.03208 20.0984 2.61818 19.5123 2.61818 18.7893C2.61818 18.0663 2.03208 17.4802 1.30909 17.4802C0.5861 17.4802 0 18.0663 0 18.7893C0 19.5123 0.5861 20.0984 1.30909 20.0984Z" fill="#504461"/>
<path d="M27.4907 20.0984C28.2137 20.0984 28.7998 19.5123 28.7998 18.7893C28.7998 18.0663 28.2137 17.4802 27.4907 17.4802C26.7677 17.4802 26.1816 18.0663 26.1816 18.7893C26.1816 19.5123 26.7677 20.0984 27.4907 20.0984Z" fill="#504461"/>
<path d="M1.30909 28.7999C2.03208 28.7999 2.61818 28.2138 2.61818 27.4909C2.61818 26.7679 2.03208 26.1818 1.30909 26.1818C0.5861 26.1818 0 26.7679 0 27.4909C0 28.2138 0.5861 28.7999 1.30909 28.7999Z" fill="#504461"/>
<path d="M10.0108 28.7999C10.7337 28.7999 11.3198 28.2138 11.3198 27.4909C11.3198 26.7679 10.7337 26.1818 10.0108 26.1818C9.28776 26.1818 8.70166 26.7679 8.70166 27.4909C8.70166 28.2138 9.28776 28.7999 10.0108 28.7999Z" fill="#504461"/>
<path d="M18.7896 28.7999C19.5126 28.7999 20.0987 28.2138 20.0987 27.4909C20.0987 26.7679 19.5126 26.1818 18.7896 26.1818C18.0666 26.1818 17.4805 26.7679 17.4805 27.4909C17.4805 28.2138 18.0666 28.7999 18.7896 28.7999Z" fill="#504461"/>
<path d="M27.4907 28.7999C28.2137 28.7999 28.7998 28.2138 28.7998 27.4909C28.7998 26.7679 28.2137 26.1818 27.4907 26.1818C26.7677 26.1818 26.1816 26.7679 26.1816 27.4909C26.1816 28.2138 26.7677 28.7999 27.4907 28.7999Z" fill="#504461"/>
</svg>
