<svg width="30" height="30" viewBox="0 0 30 30" fill="none" xmlns="http://www.w3.org/2000/svg">
<path d="M0.5 15.502H29.3" stroke="#504461" stroke-linecap="round" stroke-linejoin="round"/>
<path d="M22.1735 21.3796C25.4195 21.3796 28.051 18.7481 28.051 15.5021C28.051 12.256 25.4195 9.62451 22.1735 9.62451C18.9274 9.62451 16.2959 12.256 16.2959 15.5021C16.2959 18.7481 18.9274 21.3796 22.1735 21.3796Z" fill="#FFCDD8"/>
<path d="M22.1729 17.5591C21.0708 17.5591 20.1157 16.604 20.1157 15.502C20.1157 14.3999 21.0708 13.4448 22.1729 13.4448C23.2749 13.4448 24.23 14.3999 24.23 15.502C24.23 16.604 23.2749 17.5591 22.1729 17.5591Z" fill="#504461"/>
<path d="M0.5 4.04077H29.3" stroke="#504461" stroke-linecap="round" stroke-linejoin="round"/>
<path d="M6.96513 8.08163C9.19681 8.08163 11.0059 6.2725 11.0059 4.04082C11.0059 1.80914 9.19681 0 6.96513 0C4.73345 0 2.92432 1.80914 2.92432 4.04082C2.92432 6.2725 4.73345 8.08163 6.96513 8.08163Z" fill="#FFE4CC"/>
<path d="M6.96477 5.43686C7.73571 5.43686 8.36068 4.81188 8.36068 4.04094C8.36068 3.26999 7.73571 2.64502 6.96477 2.64502C6.19382 2.64502 5.56885 3.26999 5.56885 4.04094C5.56885 4.81188 6.19382 5.43686 6.96477 5.43686Z" fill="#504461"/>
<path d="M0.5 26.0815H29.3" stroke="#504461" stroke-linecap="round" stroke-linejoin="round"/>
<path d="M12.9895 29.4611C14.856 29.4611 16.369 27.948 16.369 26.0815C16.369 24.215 14.856 22.7019 12.9895 22.7019C11.123 22.7019 9.60986 24.215 9.60986 26.0815C9.60986 27.948 11.123 29.4611 12.9895 29.4611Z" fill="#CCFFFF"/>
<path d="M12.9895 27.257C12.3283 27.257 11.814 26.7427 11.814 26.0815C11.814 25.4203 12.3283 24.906 12.9895 24.906C13.6507 24.906 14.165 25.4203 14.165 26.0815C14.165 26.7427 13.6507 27.257 12.9895 27.257Z" fill="#504461"/>
</svg>
